<svg width="100" height="100" viewBox="0 0 629 99" fill="none" xmlns="http://www.w3.org/2000/svg">
<g filter="url(#filter0_d_145_113)">
<path d="M48.88 75.296L4.72 55.328V41.6L48.88 21.536V34.592L22.384 46.208C21.104 46.784 19.76 47.264 18.352 47.648C16.944 48.032 15.824 48.288 14.992 48.416C15.824 48.544 16.944 48.8 18.352 49.184C19.76 49.504 21.104 49.952 22.384 50.528L48.88 62.144V75.296ZM59.5945 80V9.92H75.8185L82.2505 32C82.9545 34.304 83.4665 36.32 83.7865 38.048C84.1705 39.776 84.3945 40.992 84.4585 41.696C84.5225 40.992 84.7145 39.776 85.0345 38.048C85.4185 36.32 85.9305 34.304 86.5705 32L92.9065 9.92H109.131V80H95.9785V60.8C95.9785 57.28 96.0425 53.6 96.1705 49.76C96.3625 45.856 96.5865 41.984 96.8425 38.144C97.0985 34.304 97.3865 30.72 97.7065 27.392C98.0265 24 98.3145 21.056 98.5705 18.56L90.5065 50.24H78.3145L69.8665 18.56C70.1865 20.928 70.5065 23.776 70.8265 27.104C71.1465 30.368 71.4345 33.92 71.6905 37.76C72.0105 41.536 72.2665 45.408 72.4585 49.376C72.6505 53.344 72.7465 57.152 72.7465 60.8V80H59.5945ZM135.109 80.96C129.797 80.96 125.573 79.52 122.437 76.64C119.365 73.76 117.829 69.856 117.829 64.928C117.829 59.616 119.653 55.552 123.301 52.736C127.013 49.856 132.325 48.416 139.237 48.416H150.181V44.48C150.181 42.432 149.445 40.8 147.973 39.584C146.565 38.368 144.645 37.76 142.213 37.76C139.973 37.76 138.117 38.272 136.645 39.296C135.173 40.32 134.277 41.728 133.957 43.52H120.037C120.613 38.208 122.917 34.016 126.949 30.944C131.045 27.808 136.293 26.24 142.693 26.24C149.413 26.24 154.725 27.904 158.629 31.232C162.597 34.496 164.581 38.912 164.581 44.48V80H150.661V71.36H148.357L150.757 68C150.757 71.968 149.317 75.136 146.437 77.504C143.621 79.808 139.845 80.96 135.109 80.96ZM140.485 70.4C143.301 70.4 145.605 69.664 147.397 68.192C149.253 66.656 150.181 64.672 150.181 62.24V56.576H139.525C137.349 56.576 135.589 57.216 134.245 58.496C132.901 59.712 132.229 61.344 132.229 63.392C132.229 65.568 132.965 67.296 134.437 68.576C135.909 69.792 137.925 70.4 140.485 70.4ZM205.248 80C199.872 80 195.648 78.464 192.576 75.392C189.504 72.32 187.968 68.096 187.968 62.72V40.16H174.048V27.2H187.968V12.32H202.368V27.2H222.048V40.16H202.368V62.72C202.368 65.6 203.808 67.04 206.688 67.04H221.088V80H205.248ZM257.146 80.96C252.474 80.96 248.378 80.096 244.858 78.368C241.402 76.576 238.714 74.112 236.794 70.976C234.938 67.776 234.01 64.064 234.01 59.84V47.36C234.01 43.136 234.938 39.456 236.794 36.32C238.714 33.12 241.402 30.656 244.858 28.928C248.378 27.136 252.474 26.24 257.146 26.24C261.818 26.24 265.85 27.136 269.242 28.928C272.698 30.656 275.354 33.12 277.21 36.32C279.13 39.456 280.09 43.136 280.09 47.36V56.96H247.738V59.84C247.738 63.168 248.538 65.696 250.138 67.424C251.738 69.088 254.138 69.92 257.338 69.92C259.578 69.92 261.37 69.536 262.714 68.768C264.122 68 265.05 66.944 265.498 65.6H279.61C278.458 70.208 275.834 73.92 271.738 76.736C267.706 79.552 262.842 80.96 257.146 80.96ZM266.362 49.568V47.168C266.362 43.904 265.594 41.408 264.058 39.68C262.586 37.952 260.282 37.088 257.146 37.088C254.01 37.088 251.642 37.984 250.042 39.776C248.506 41.568 247.738 44.096 247.738 47.36V48.8L267.322 48.608L266.362 49.568ZM314.613 80.96C307.509 80.96 301.941 79.04 297.909 75.2C293.941 71.36 291.957 66.112 291.957 59.456V27.2H306.357V59.36C306.357 62.304 307.061 64.576 308.469 66.176C309.877 67.712 311.925 68.48 314.613 68.48C317.237 68.48 319.253 67.712 320.661 66.176C322.133 64.576 322.869 62.304 322.869 59.36V27.2H337.269V59.456C337.269 66.176 335.253 71.456 331.221 75.296C327.189 79.072 321.653 80.96 314.613 80.96ZM369.967 80.96C365.615 80.96 361.807 80.288 358.543 78.944C355.279 77.536 352.719 75.616 350.863 73.184C349.071 70.752 348.175 67.904 348.175 64.64H362.575C362.575 66.176 363.247 67.424 364.591 68.384C365.999 69.28 367.791 69.728 369.967 69.728H374.191C376.815 69.728 378.799 69.248 380.143 68.288C381.551 67.328 382.255 65.984 382.255 64.256C382.255 62.656 381.647 61.44 380.431 60.608C379.215 59.712 377.327 59.104 374.767 58.784L368.623 58.016C362.031 57.184 357.231 55.584 354.223 53.216C351.215 50.848 349.711 47.232 349.711 42.368C349.711 37.248 351.471 33.28 354.991 30.464C358.511 27.648 363.663 26.24 370.447 26.24H374.095C380.559 26.24 385.711 27.648 389.551 30.464C393.391 33.28 395.311 37.056 395.311 41.792H380.911C380.911 40.512 380.271 39.488 378.991 38.72C377.775 37.888 376.143 37.472 374.095 37.472H370.447C368.079 37.472 366.351 37.888 365.263 38.72C364.175 39.488 363.631 40.672 363.631 42.272C363.631 43.744 364.111 44.864 365.071 45.632C366.095 46.4 367.695 46.944 369.871 47.264L376.495 48.128C383.151 48.96 388.079 50.624 391.279 53.12C394.543 55.616 396.175 59.328 396.175 64.256C396.175 69.632 394.319 73.76 390.607 76.64C386.895 79.52 381.423 80.96 374.191 80.96H369.967ZM463.3 90.56L496.42 0.319996H511.3L478.18 90.56H463.3ZM580.345 75.296V62.24L606.841 50.624C608.121 50.048 609.465 49.568 610.873 49.184C612.281 48.8 613.401 48.544 614.233 48.416C613.401 48.288 612.281 48.064 610.873 47.744C609.465 47.36 608.121 46.88 606.841 46.304L580.345 34.688V21.536L624.505 41.504V55.232L580.345 75.296Z" fill="white"/>
</g>
<defs>
<filter id="filter0_d_145_113" x="0.719727" y="0.320007" width="627.785" height="98.24" filterUnits="userSpaceOnUse" color-interpolation-filters="sRGB">
<feFlood flood-opacity="0" result="BackgroundImageFix"/>
<feColorMatrix in="SourceAlpha" type="matrix" values="0 0 0 0 0 0 0 0 0 0 0 0 0 0 0 0 0 0 127 0" result="hardAlpha"/>
<feOffset dy="4"/>
<feGaussianBlur stdDeviation="2"/>
<feComposite in2="hardAlpha" operator="out"/>
<feColorMatrix type="matrix" values="0 0 0 0 0 0 0 0 0 0 0 0 0 0 0 0 0 0 0.25 0"/>
<feBlend mode="normal" in2="BackgroundImageFix" result="effect1_dropShadow_145_113"/>
<feBlend mode="normal" in="SourceGraphic" in2="effect1_dropShadow_145_113" result="shape"/>
</filter>
</defs>
</svg>
