<svg width="48" height="48" viewBox="0 0 48 48" fill="none" xmlns="http://www.w3.org/2000/svg">
<path d="M24 47.2918C36.9048 47.2918 47.3662 37.0469 47.3662 24.4092C47.3662 11.7715 36.9048 1.52656 24 1.52656C11.0952 1.52656 0.633789 11.7715 0.633789 24.4092C0.633789 37.0469 11.0952 47.2918 24 47.2918Z" fill="url(#paint0_radial_156_112)"/>
<path d="M24.0004 45.5921C36.4011 45.5921 46.4539 36.1082 46.4539 24.4092C46.4539 12.7102 36.4011 3.22623 24.0004 3.22623C11.5997 3.22623 1.54688 12.7102 1.54688 24.4092C1.54688 36.1082 11.5997 45.5921 24.0004 45.5921Z" fill="#6181B6"/>
<path d="M28.5465 31.2551L29.662 20.5849C29.9155 18.1771 29.7042 16.383 29.0366 15.2498C28.3944 14.1482 27.3042 13.6131 25.6986 13.6131H23.7718L24.3211 8.32525C24.338 8.12066 24.3127 7.91607 24.2451 7.75869C24.1775 7.60131 24.0761 7.50689 23.9662 7.50689H21.3042C21.1268 7.50689 20.9831 7.74295 20.9493 8.05771L19.7662 19.3889C19.6564 18.1141 19.3944 17.0125 18.9718 16.1154C18.1944 14.4472 16.9521 13.6131 15.3042 13.6131H10.1409C9.96339 13.6131 9.81973 13.8492 9.78593 14.1639L7.38593 37.0938C7.36903 37.2984 7.39438 37.503 7.46199 37.6603C7.52959 37.8177 7.631 37.9121 7.74086 37.9121H10.4282C10.6056 37.9121 10.7493 37.6761 10.7831 37.3613L11.3662 31.8059H13.3606C14.4085 31.8059 15.2873 31.6013 15.9803 31.1764C16.6817 30.7515 17.3324 30.0275 17.8986 29.0361C18.3634 28.2492 18.7437 27.3679 19.031 26.4079L18.5493 30.9875C18.5324 31.1921 18.5578 31.3967 18.6254 31.5541C18.693 31.7115 18.7944 31.8059 18.9042 31.8059H21.5662C21.7437 31.8059 21.8873 31.5698 21.9211 31.2551L23.231 18.6649H25.0564C25.8338 18.6649 26.062 18.9482 26.1211 19.0741C26.1803 19.1843 26.2986 19.5934 26.1634 20.8367L25.124 31.0033C25.1071 31.2079 25.1324 31.4125 25.2 31.5698C25.2676 31.7272 25.369 31.8216 25.4789 31.8216H28.1831C28.3606 31.8059 28.5127 31.5856 28.5465 31.2551ZM16.2085 22.442C16.0395 24.0472 15.7268 25.1803 15.2704 25.8413C14.8056 26.5023 14.0704 26.8328 13.0733 26.8328H11.8817L12.7437 18.5862H14.2817C15.4141 18.5862 15.8704 19.0426 16.0479 19.4203C16.3014 19.9397 16.3606 20.9784 16.2085 22.442Z" fill="white"/>
<path d="M39.9292 16.1154C39.1517 14.4472 37.9095 13.6131 36.2616 13.6131H31.0982C30.9208 13.6131 30.7771 13.8492 30.7433 14.1639L28.3518 37.1095C28.3348 37.3141 28.3602 37.5187 28.4278 37.6761C28.4954 37.8334 28.5968 37.9279 28.7067 37.9279H31.394C31.5715 37.9279 31.7151 37.6918 31.7489 37.377L32.332 31.8216H34.3264C35.3743 31.8216 36.2532 31.617 36.9461 31.1921C37.6475 30.7672 38.2982 30.0433 38.8644 29.0518C39.3377 28.2334 39.7348 27.3207 40.0306 26.3292C40.3264 25.3377 40.5377 24.2361 40.6644 23.0557C40.9602 20.1285 40.7151 17.7993 39.9292 16.1154ZM37.1489 22.442C36.9799 24.0472 36.6672 25.1803 36.2109 25.8413C35.7461 26.5023 35.0109 26.8328 34.0137 26.8328H32.8222L33.6841 18.5862H35.2222C36.3546 18.5862 36.8109 19.0426 36.9884 19.4203C37.2503 19.9397 37.301 20.9784 37.1489 22.442Z" fill="white"/>
<path d="M14.2814 17.9095C15.304 17.9095 15.98 18.2557 16.318 18.9639C16.6561 19.6721 16.7406 20.8682 16.5631 22.5679C16.3772 24.3462 16.0223 25.6052 15.4899 26.3764C14.9575 27.1318 14.1547 27.5095 13.073 27.5095H11.442L12.4476 17.9095H14.2814ZM7.74902 37.2354H10.4363L11.0702 31.1292H13.3687C14.3828 31.1292 15.2194 30.9246 15.8702 30.5311C16.5293 30.1377 17.1209 29.4767 17.6532 28.5325C18.1011 27.7613 18.4645 26.9115 18.7434 25.983C19.0223 25.0544 19.2166 24.0315 19.3349 22.9141C19.6223 20.1915 19.4025 18.0826 18.6927 16.5561C17.9828 15.0452 16.8504 14.2741 15.2955 14.2741H10.1406L7.74902 37.2354Z" fill="black"/>
<path d="M21.3121 8.19934H23.9741L23.3403 14.3056H25.7149C27.2107 14.3056 28.2332 14.7934 28.7994 15.7534C29.3656 16.7292 29.5346 18.2872 29.3065 20.459L28.191 31.1292H25.4868L26.5431 20.9784C26.6614 19.8295 26.6192 19.0426 26.4079 18.6177C26.1966 18.1928 25.7572 17.9882 25.0727 17.9882H22.9431L21.5741 31.1292H18.9121L21.3121 8.19934Z" fill="black"/>
<path d="M35.2218 17.9095C36.2444 17.9095 36.9204 18.2557 37.2585 18.9639C37.5965 19.6721 37.681 20.8682 37.5035 22.5679C37.3176 24.3462 36.9627 25.6052 36.4303 26.3764C35.8979 27.1318 35.0951 27.5095 34.0134 27.5095H32.3824L33.388 17.9095H35.2218ZM28.6895 37.2354H31.3768L32.0106 31.1292H34.3092C35.3233 31.1292 36.1599 30.9246 36.8106 30.5311C37.4697 30.1377 38.0613 29.4767 38.5937 28.5325C39.0416 27.7613 39.4049 26.9115 39.6838 25.983C39.9627 25.0544 40.1571 24.0315 40.2754 22.9141C40.5627 20.1915 40.343 18.0826 39.6331 16.5561C38.9233 15.0452 37.7909 14.2741 36.2359 14.2741H31.0726L28.6895 37.2354Z" fill="black"/>
<defs>
<radialGradient id="paint0_radial_156_112" cx="0" cy="0" r="1" gradientUnits="userSpaceOnUse" gradientTransform="translate(14.6636 9.56898) scale(30.6808 57.1368)">
<stop stop-color="white"/>
<stop offset="0.5" stop-color="#4C6B97"/>
<stop offset="1"/>
</radialGradient>
</defs>
</svg>
